<?xml version="1.0" standalone="no"?><!DOCTYPE svg PUBLIC "-//W3C//DTD SVG 1.1//EN" "http://www.w3.org/Graphics/SVG/1.1/DTD/svg11.dtd"><svg t="1603692918329" class="icon" viewBox="0 0 1024 1024" version="1.1" xmlns="http://www.w3.org/2000/svg" p-id="5453" width="128" height="128" xmlns:xlink="http://www.w3.org/1999/xlink"><defs><style type="text/css"></style></defs><path d="M517.12 43.91936c-258.73408 0-468.48 209.74592-468.48 468.48s209.74592 468.48 468.48 468.48 468.48-209.74592 468.48-468.48-209.74592-468.48-468.48-468.48zM742.23872 565.76H570.88v171.79904c0 29.568-24.192 53.76-53.76 53.76s-53.76-24.192-53.76-53.76V565.76h-171.43808c-29.568 0-53.76-24.192-53.76-53.76s24.192-53.76 53.76-53.76H463.36v-170.99776c0-29.568 24.192-53.76 53.76-53.76s53.76 24.192 53.76 53.76V458.24h171.35872c29.568 0 53.76 24.192 53.76 53.76s-24.192 53.76-53.76 53.76z" p-id="5454"></path></svg>