<?xml version="1.0" standalone="no"?><!DOCTYPE svg PUBLIC "-//W3C//DTD SVG 1.1//EN" "http://www.w3.org/Graphics/SVG/1.1/DTD/svg11.dtd"><svg t="1608776417483" class="icon" viewBox="0 0 1024 1024" version="1.1" xmlns="http://www.w3.org/2000/svg" p-id="2125" xmlns:xlink="http://www.w3.org/1999/xlink" width="128" height="128"><defs><style type="text/css"></style></defs><path d="M569.6 966.4c-38.4 0-70.4-6.4-108.8-12.8-19.2-6.4-25.6-19.2-25.6-38.4 6.4-19.2 19.2-25.6 38.4-25.6 153.6 38.4 313.6-19.2 403.2-147.2 64-83.2 89.6-185.6 76.8-288-12.8-102.4-70.4-192-153.6-256C716.8 140.8 614.4 115.2 512 128c-102.4 12.8-192 70.4-256 153.6C198.4 352 172.8 448 179.2 544c0 12.8-12.8 32-32 32-12.8 0-32-12.8-32-32-6.4-108.8 25.6-217.6 89.6-300.8C275.2 140.8 384 83.2 499.2 64c121.6-19.2 236.8 12.8 332.8 83.2s160 179.2 179.2 300.8c19.2 121.6-12.8 236.8-83.2 332.8-83.2 121.6-224 185.6-358.4 185.6z" p-id="2126"></path><path d="M288 416c12.8 12.8 12.8 32 0 44.8L166.4 569.6c-12.8 12.8-32 6.4-38.4 0-12.8-12.8-12.8-32 0-44.8l121.6-115.2c12.8-6.4 32-6.4 38.4 6.4z" p-id="2127"></path><path d="M166.4 569.6c-12.8 12.8-32 6.4-38.4 0l-115.2-128c-12.8-6.4-12.8-25.6 0-38.4 12.8-12.8 32-12.8 44.8 0l115.2 121.6c6.4 12.8 6.4 32-6.4 44.8zM396.8 499.2h384c19.2 0 32 12.8 32 32s-12.8 32-32 32h-384c-12.8 0-32-12.8-32-32 0-12.8 19.2-32 32-32z" p-id="2128"></path><path d="M620.8 339.2v384c0 19.2-12.8 32-32 32s-32-12.8-32-32v-384c0-19.2 12.8-32 32-32s32 19.2 32 32z" p-id="2129"></path></svg>