<?xml version="1.0" standalone="no"?><!DOCTYPE svg PUBLIC "-//W3C//DTD SVG 1.1//EN" "http://www.w3.org/Graphics/SVG/1.1/DTD/svg11.dtd"><svg t="1592211335177" class="icon" viewBox="0 0 1024 1024" version="1.1" xmlns="http://www.w3.org/2000/svg" p-id="107000" xmlns:xlink="http://www.w3.org/1999/xlink" width="128" height="128"><defs><style type="text/css"></style></defs><path d="M768.04999 127.975005h-639.875024c-70.686194 0-127.975005 57.288811-127.975005 127.975005v639.875024c0 70.686194 57.288811 127.975005 127.975005 127.975005h639.875024c70.686194 0 127.975005-57.288811 127.975005-127.975005v-639.875024c0-70.686194-57.288811-127.975005-127.975005-127.975005z m-127.975005 511.900019h-127.975005v127.975005c0 35.293107-28.694396 63.987502-63.987502 63.987503s-63.987502-28.694396-63.987502-63.987503v-127.975005h-127.975005c-35.293107 0-63.987502-28.694396-63.987503-63.987502s28.694396-63.987502 63.987503-63.987502h127.975005v-127.975005c0-35.293107 28.694396-63.987502 63.987502-63.987503s63.987502 28.694396 63.987502 63.987503v127.975005h127.975005c35.293107 0 63.987502 28.694396 63.987503 63.987502 0 35.393087-28.694396 63.987502-63.987503 63.987502z m255.95001-639.875024h-575.887522c-51.889865 0-96.581136 30.893966-116.677211 75.285296 16.096856-7.298574 33.89338-11.297793 52.689709-11.297794h575.887522c70.686194 0 127.975005 57.288811 127.975005 127.975005v639.875025c0 16.496778 0.399922 32.293693 0 46.890841 38.192541-22.095684 63.987502-63.4876 63.987502-110.878344v-639.875024c0-70.686194-57.288811-127.975005-127.975005-127.975005z" p-id="107001"></path></svg>