<?xml version="1.0" standalone="no"?><!DOCTYPE svg PUBLIC "-//W3C//DTD SVG 1.1//EN" "http://www.w3.org/Graphics/SVG/1.1/DTD/svg11.dtd"><svg t="1592206739196" class="icon" viewBox="0 0 1024 1024" version="1.1" xmlns="http://www.w3.org/2000/svg" p-id="56711" xmlns:xlink="http://www.w3.org/1999/xlink" width="128" height="128"><defs><style type="text/css"></style></defs><path d="M508.117333 85.333333c162.56 0 277.504 43.221333 344.96 129.706667C910.08 288.512 938.666667 390.954667 938.666667 522.368c0 156.501333-37.589333 270.634667-112.810667 342.357333-68.309333 63.146667-166.442667 94.72-294.4 94.72-171.178667 0-293.12-47.146667-365.738667-141.397333C112.128 747.178667 85.333333 647.722667 85.333333 519.808c0-147.882667 34.346667-257.024 103.082667-327.466667C257.152 121.856 363.733333 86.186667 508.16 85.333333z m-3.882666 143.957334c-38.912 0-74.154667 8.405333-105.728 25.301333a171.989333 171.989333 0 0 0-71.978667 70.656c-11.221333 19.029333-20.48 46.506667-27.861333 82.346667-7.338667 35.882667-11.008 70.698667-11.008 104.405333 0 38.912 3.84 77.824 11.648 116.736 7.808 38.869333 17.28 69.12 28.544 90.752 33.706667 63.146667 98.56 94.72 194.56 94.72 52.693333 0 93.354667-10.837333 121.856-32.426667 39.765333-29.44 65.706667-73.088 77.824-130.986666a656.213333 656.213333 0 0 0 14.250666-136.192c0-44.117333-5.162667-85.376-15.530666-123.861334-10.410667-38.485333-24.234667-68.522667-41.514667-90.112-17.28-21.632-41.514667-38.698667-72.618667-51.242666a290.133333 290.133333 0 0 0-102.442666-20.096z" p-id="56712"></path></svg>