<?xml version="1.0" standalone="no"?><!DOCTYPE svg PUBLIC "-//W3C//DTD SVG 1.1//EN" "http://www.w3.org/Graphics/SVG/1.1/DTD/svg11.dtd"><svg t="1596008865481" class="icon" viewBox="0 0 1024 1024" version="1.1" xmlns="http://www.w3.org/2000/svg" p-id="3923" xmlns:xlink="http://www.w3.org/1999/xlink" width="64" height="64"><defs><style type="text/css"></style></defs><path d="M380.342857 0c21.942857 0 36.571429 0 58.514286 7.314286 14.628571 7.314286 36.571429 7.314286 51.2 14.628571l43.885714 21.942857c7.314286 7.314286 21.942857 14.628571 29.257143 29.257143 14.628571 21.942857 29.257143 43.885714 36.571429 73.142857 7.314286 21.942857 14.628571 51.2 14.628571 73.142857 0 29.257143 7.314286 51.2 7.314286 80.457143 7.314286 0 7.314286 7.314286 7.314285 14.628572s7.314286 14.628571 7.314286 21.942857V365.714286c0 14.628571-7.314286 21.942857-7.314286 36.571428 0 7.314286-7.314286 14.628571-14.628571 21.942857h-21.942857c0 14.628571-7.314286 21.942857-7.314286 36.571429 0 7.314286-7.314286 14.628571-7.314286 21.942857 0 7.314286-7.314286 14.628571-14.628571 21.942857-14.628571 7.314286-21.942857 14.628571-29.257143 21.942857-14.628571 14.628571-14.628571 29.257143-14.628571 36.571429-7.314286 14.628571-7.314286 21.942857-7.314286 36.571429 0 7.314286 0 21.942857 7.314286 29.257142l7.314285 7.314286c-102.4 95.085714-131.657143 248.685714-58.514285 373.028572-7.314286 7.314286-14.628571 7.314286-29.257143 0H321.828571c-21.942857 0-51.2 0-73.142857-7.314286s-51.2-7.314286-80.457143-7.314286c-21.942857 0-43.885714-7.314286-73.142857-7.314286-21.942857 0-36.571429-7.314286-51.2-7.314285-7.314286 0-21.942857-7.314286-29.257143-7.314286-7.314286-21.942857-14.628571-43.885714-14.628571-58.514286 0-36.571429 0-73.142857 7.314286-109.714285 0-21.942857 14.628571-43.885714 29.257143-58.514286 14.628571-14.628571 36.571429-21.942857 51.2-29.257143l65.828571-21.942857c21.942857-7.314286 43.885714-14.628571 58.514286-29.257143 7.314286 0 21.942857-7.314286 29.257143-21.942857 7.314286-7.314286 14.628571-14.628571 14.628571-21.942857 0-7.314286 7.314286-14.628571 7.314286-21.942857v-29.257143c0-14.628571-7.314286-29.257143-14.628572-36.571429-14.628571-14.628571-21.942857-21.942857-36.571428-29.257143 0-7.314286-7.314286-14.628571-7.314286-21.942857 0-7.314286-7.314286-14.628571-7.314286-21.942857 0-7.314286-7.314286-21.942857-7.314285-29.257143-7.314286 0-7.314286-7.314286-14.628572-7.314286l-21.942857-21.942857c0-7.314286-7.314286-14.628571-7.314286-21.942857-7.314286-7.314286-7.314286-21.942857-7.314285-29.257143 0-7.314286 0-14.628571 7.314285-21.942857 0-7.314286 7.314286-14.628571 14.628572-21.942857 0-29.257143 0-51.2 7.314285-73.142857 0-21.942857 7.314286-43.885714 14.628572-65.828572 7.314286-21.942857 14.628571-43.885714 29.257143-65.828571 7.314286-29.257143 21.942857-43.885714 36.571428-58.514286 14.628571-7.314286 29.257143-21.942857 43.885715-29.257143 14.628571-7.314286 29.257143-7.314286 43.885714-14.628571h43.885714zM658.285714 972.8c-14.628571 14.628571-36.571429 14.628571-51.2 0l-102.4-102.4c-14.628571-14.628571-14.628571-36.571429 0-51.2l102.4-102.4c14.628571-14.628571 36.571429-14.628571 51.2 0 14.628571 14.628571 14.628571 36.571429 0 51.2l-80.457143 80.457143 80.457143 73.142857c14.628571 14.628571 14.628571 36.571429 0 51.2z m175.542857-263.314286l-80.457142 292.571429c0 7.314286-7.314286 14.628571-14.628572 21.942857h-29.257143c-7.314286 0-14.628571-7.314286-21.942857-14.628571-7.314286-7.314286-7.314286-14.628571 0-29.257143l80.457143-292.571429c0-7.314286 7.314286-14.628571 14.628571-21.942857 7.314286-7.314286 14.628571-7.314286 29.257143 0 7.314286 0 14.628571 7.314286 21.942857 14.628571 0 7.314286 7.314286 21.942857 0 29.257143z m182.857143 160.914286l-102.4 102.4c-14.628571 14.628571-36.571429 14.628571-51.2 0-14.628571-14.628571-14.628571-36.571429 0-51.2l80.457143-80.457143-80.457143-80.457143c-14.628571-14.628571-14.628571-36.571429 0-51.2 14.628571-14.628571 36.571429-14.628571 43.885715 0l102.4 102.4c14.628571 21.942857 14.628571 43.885714 7.314285 58.514286z" p-id="3924"></path></svg>