<?xml version="1.0" standalone="no"?><!DOCTYPE svg PUBLIC "-//W3C//DTD SVG 1.1//EN" "http://www.w3.org/Graphics/SVG/1.1/DTD/svg11.dtd"><svg t="1592207899148" class="icon" viewBox="0 0 1024 1024" version="1.1" xmlns="http://www.w3.org/2000/svg" p-id="71911" xmlns:xlink="http://www.w3.org/1999/xlink" width="128" height="128"><defs><style type="text/css"></style></defs><path d="M894.976 127.3856H125.7472c-42.3936 0-76.8 34.2016-77.0048 76.5952v616.0384c0.2048 42.3936 34.6112 76.8 77.0048 76.5952H894.976c42.3936 0 76.8-34.2016 77.0048-76.5952V203.9808c-0.2048-42.3936-34.6112-76.5952-77.0048-76.5952zM394.8544 742.8096h-153.8048c-21.2992 0-38.5024-17.2032-38.5024-38.5024s17.2032-38.5024 38.5024-38.5024h153.8048c21.2992 0 38.5024 17.2032 38.5024 38.5024s-17.2032 38.5024-38.5024 38.5024z m0-153.8048h-153.8048c-21.2992 0-38.5024-17.2032-38.5024-38.5024s17.2032-38.5024 38.5024-38.5024h153.8048c21.2992 0 38.5024 17.2032 38.5024 38.5024s-17.2032 38.5024-38.5024 38.5024z m154.0096-154.0096H241.0496c-21.2992 0-38.5024-17.2032-38.5024-38.5024s17.2032-38.5024 38.5024-38.5024H548.864c21.2992 0 38.5024 17.2032 38.5024 38.5024s-17.2032 38.5024-38.5024 38.5024z m261.3248 232.2432c10.8544 0 19.6608 8.8064 19.6608 19.6608s-8.8064 19.6608-19.6608 19.6608h-64.3072v16.7936c0 10.8544-8.8064 19.6608-19.6608 19.6608s-19.6608-8.8064-19.6608-19.6608V706.56h-64.3072c-6.9632 0-13.5168-3.6864-16.9984-9.8304-3.4816-6.144-3.4816-13.5168 0-19.6608s10.0352-9.8304 16.9984-9.8304H706.56v-44.8512h-64.3072c-10.8544 0-19.6608-8.8064-19.6608-19.6608s8.8064-19.6608 19.6608-19.6608h56.32l-0.2048-0.2048-55.9104-55.9104c-7.5776-7.5776-7.5776-20.0704 0-27.648 7.5776-7.5776 20.0704-7.5776 27.648 0l55.9104 55.9104 0.2048 0.2048 0.2048-0.2048 55.9104-55.9104c4.9152-4.9152 12.0832-6.9632 18.8416-5.12 6.7584 1.8432 12.0832 7.168 13.9264 13.9264 1.8432 6.7584-0.2048 13.9264-5.12 18.8416l-55.9104 55.9104-0.2048 0.2048h56.32c10.8544 0 19.6608 8.8064 19.6608 19.6608s-8.8064 19.6608-19.6608 19.6608h-64.3072v44.8512h64.3072z" p-id="71912"></path></svg>