<?xml version="1.0" standalone="no"?><!DOCTYPE svg PUBLIC "-//W3C//DTD SVG 1.1//EN" "http://www.w3.org/Graphics/SVG/1.1/DTD/svg11.dtd"><svg t="1592208835937" class="icon" viewBox="0 0 1024 1024" version="1.1" xmlns="http://www.w3.org/2000/svg" p-id="83127" xmlns:xlink="http://www.w3.org/1999/xlink" width="128" height="128"><defs><style type="text/css"></style></defs><path d="M66.39 1023.36a65.431 65.431 0 0 1-65.367-65.367V236.78c0-36.073 29.358-65.367 65.368-65.367h152.544c24.625 0 45.348 14.327 53.982 37.416a56.477 56.477 0 0 1-15.99 63.705l-20.403 17.845H119.861v612.097h646.892V759.461l15.478-11.065a64.6 64.6 0 0 1 37.864-12.28c36.138 0 65.56 29.358 65.56 65.495v156.446c0 36.074-29.358 65.367-65.368 65.367H66.391z m573.338-542.125c-37.097 0.32-69.972 1.6-97.667 3.838a491.021 491.021 0 0 1-19.636 1.279c-14.902 0.832-21.746 1.215-51.68 8.827a387.342 387.342 0 0 0-112.569 48.673c-6.908 4.413-15.03 9.338-23.537 14.583-36.393 22.258-86.282 52.703-108.284 79.566a31.468 31.468 0 0 1-32.748 12.153c-13.943-3.07-22.578-14.2-22.578-29.102v-1.791l0.384-1.727c14.775-72.723 33.643-134.7 56.093-184.205a468.635 468.635 0 0 1 89.096-132.589c37.097-38.504 84.555-66.902 141.096-84.363 51.104-15.734 112.378-24.369 182.094-25.584V0l383.313 335.918-383.313 335.918v-190.6z" fill="" p-id="83128"></path></svg>