<?xml version="1.0" standalone="no"?><!DOCTYPE svg PUBLIC "-//W3C//DTD SVG 1.1//EN" "http://www.w3.org/Graphics/SVG/1.1/DTD/svg11.dtd"><svg t="1608202518612" class="icon" viewBox="0 0 1024 1024" version="1.1" xmlns="http://www.w3.org/2000/svg" p-id="866" xmlns:xlink="http://www.w3.org/1999/xlink" width="200" height="200"><defs><style type="text/css"></style></defs><path d="M96 896h-6.4c-16-3.2-25.6-16-25.6-32 0-9.6-6.4-201.6 169.6-374.4 115.2-115.2 275.2-134.4 342.4-137.6V192c0-12.8 6.4-25.6 19.2-28.8s25.6-3.2 35.2 6.4l320 288c6.4 6.4 9.6 16 9.6 22.4s-3.2 19.2-9.6 22.4l-320 288c-9.6 9.6-22.4 9.6-35.2 6.4-12.8-3.2-19.2-16-19.2-28.8v-160c-51.2 0-160 9.6-240 60.8-137.6 83.2-211.2 211.2-214.4 211.2-3.2 9.6-12.8 16-25.6 16z" p-id="867"></path></svg>