<?xml version="1.0" standalone="no"?><!DOCTYPE svg PUBLIC "-//W3C//DTD SVG 1.1//EN" "http://www.w3.org/Graphics/SVG/1.1/DTD/svg11.dtd"><svg t="1592211057489" class="icon" viewBox="0 0 1024 1024" version="1.1" xmlns="http://www.w3.org/2000/svg" p-id="104754" xmlns:xlink="http://www.w3.org/1999/xlink" width="128" height="128"><defs><style type="text/css"></style></defs><path d="M128 64h768a32 32 0 0 1 32 32v832a32 32 0 0 1-32 32H128a32 32 0 0 1-32-32V96a32 32 0 0 1 32-32z m506.976 510.912l-2.112-0.544c2.944 14.336 2.048 29.056-2.72 44.16-7.136 22.592-11.52 22.592-19.104 47.168-1.568-2.176-11.616-17.6-3.04-47.2 6.592-34.24-10.368-68.64-33.92-103.936-22.816-34.24-56.48-60.064-88.224-66.56h-1.568l0.544 1.6c10.336 52.256-19.072 79.488-53.76 109.888-34.688 30.432-72.608 65.472-78.4 133.632-7.456 89.664 51.328 152.736 86.848 181.824 2.112 1.6 4.256 2.144 6.624 2.144 3.712 0 6.592-1.6 8.736-4.32a9.728 9.728 0 0 0 0.544-9.92c-28.064-73.28 29.408-120.448 47.68-133.344-15.104 89.216 59.072 159.36 75.616 153.536 67.968-23.776 111.872-71.808 122.752-136.576 11.616-69.44-17.76-146.24-66.496-171.552zM864 131.84L160 131.52V384h704V131.84zM296 192h64v128h-64V192z m64 0v128h-64V192h64z m128 0h64v128h-64V192z m64 0v128h-64V192h64z m128 0h64v128h-64V192z m64 0v128h-64V192h64z" p-id="104755"></path></svg>