<?xml version="1.0" standalone="no"?><!DOCTYPE svg PUBLIC "-//W3C//DTD SVG 1.1//EN" "http://www.w3.org/Graphics/SVG/1.1/DTD/svg11.dtd"><svg t="1592208911679" class="icon" viewBox="0 0 1024 1024" version="1.1" xmlns="http://www.w3.org/2000/svg" p-id="84502" xmlns:xlink="http://www.w3.org/1999/xlink" width="128" height="128"><defs><style type="text/css"></style></defs><path d="M93.04738156 987.21196999c-33.51620906 0-59.85037406-26.334165-59.85037406-59.85037405v-670.32418969C33.1970075 223.52119719 59.5311725 194.79301719 93.04738156 194.79301719h93.36658313c23.94014999 0 43.09226906 14.36408999 50.274315 35.910225 7.182045 21.546135 2.394015 43.09226906-14.36409 59.85037406l-19.15212 16.75810406H143.32169562v569.77556156h600.89775563v-134.06483812l14.36409-9.57606c9.57606-7.182045 21.546135-11.970075 35.91022406-11.97007406 33.51620906 0 59.85037406 26.334165 59.85037406 59.85037406v146.03491219c0 33.51620906-26.334165 59.85037406-59.85037406 59.85037407H93.04738156z m0 2e-8" p-id="84503"></path><path d="M550.30423906 699.93017469L193.59600969 386.31421437l356.70822937-311.22194531v177.15710719c64.63840406 0 122.09476313 9.57606 169.97506313 23.94015 52.66832906 16.758105 95.76059813 43.09226906 131.67082219 79.00249406 33.51620906 35.91022406 62.24438906 76.60847906 83.79052406 124.48877813 21.546135 45.48628406 38.30423906 102.94264313 52.66832906 172.36907719v4.78803c0 14.36408999-7.182045 23.94014999-21.546135 26.33416406h-7.18204406c-9.57606 0-16.758105-4.78802999-23.94015-11.970075-21.546135-23.94014999-67.03241906-52.66832906-100.54862813-74.21446313l-21.546135-14.36409c-31.12219406-21.546135-67.03241906-35.91022406-105.33665812-45.48628406-28.72818-7.182045-33.51620906-7.182045-47.88029906-7.182045-4.78802999 0-9.57606 0-19.15212-2.394015-26.334165-2.394015-57.45635906-2.394015-90.97256907-2.394015v174.76309219z m0 0" p-id="84504"></path></svg>