<?xml version="1.0" standalone="no"?><!DOCTYPE svg PUBLIC "-//W3C//DTD SVG 1.1//EN" "http://www.w3.org/Graphics/SVG/1.1/DTD/svg11.dtd"><svg t="1592203071684" class="icon" viewBox="0 0 1024 1024" version="1.1" xmlns="http://www.w3.org/2000/svg" p-id="18899" xmlns:xlink="http://www.w3.org/1999/xlink" width="128" height="128"><defs><style type="text/css"></style></defs><path d="M512 0C229.376 0 0 229.376 0 512s229.376 512 512 512 512-229.376 512-512S794.624 0 512 0z m0 855.04c-189.44 0-343.04-153.6-343.04-343.04 0-35.84 28.672-64.512 64.512-64.512S297.984 476.16 297.984 512c-5.632 159.744 118.784 293.888 278.528 300.032 151.04-5.12 271.872-125.952 278.016-276.992 0.512-5.12 0.512-10.24 0.512-15.36 0 5.12-0.512 10.24-0.512 15.36-12.288 179.712-161.792 319.488-342.528 320z m278.528-278.528c-35.84 0-64.512-28.672-64.512-64.512 5.632-159.744-118.784-293.888-278.528-300.032-151.04 5.12-271.872 125.952-278.016 276.992-0.512 5.12-0.512 10.24-0.512 15.36 0-5.12 0.512-10.24 0.512-15.36 13.312-188.928 177.664-331.264 366.592-317.952C715.264 184.32 854.016 332.8 855.04 512c0 35.84-28.672 64.512-64.512 64.512z" p-id="18900"></path></svg>