<?xml version="1.0" standalone="no"?><!DOCTYPE svg PUBLIC "-//W3C//DTD SVG 1.1//EN" "http://www.w3.org/Graphics/SVG/1.1/DTD/svg11.dtd"><svg t="1592208042819" class="icon" viewBox="0 0 1024 1024" version="1.1" xmlns="http://www.w3.org/2000/svg" p-id="73459" xmlns:xlink="http://www.w3.org/1999/xlink" width="128" height="128"><defs><style type="text/css"></style></defs><path d="M223.011218 786.853066a45.593676 45.593676 0 1 0 0 91.187351h492.206902a45.593676 45.593676 0 1 0 0-91.187351H223.011218zM930.73716 40.216209a46.617647 46.617647 0 0 0-37.132438 45.809248v746.044032a101.858211 101.858211 0 0 1-103.205542 100.295307h-625.161508a34.599456 34.599456 0 0 1-35.084495-34.16831V770.685096a34.16831 34.16831 0 0 1 34.599456-33.737165h445.697041a186.740054 186.740054 0 0 0 189.111356-184.260965V138.517467A140.122407 140.122407 0 0 0 657.714039 0.011857H178.657087A140.391873 140.391873 0 0 0 36.486737 138.517467v759.894592A127.241924 127.241924 0 0 0 165.399351 1023.983293h625.161509a194.446786 194.446786 0 0 0 196.925875-191.913804V84.947593a46.348181 46.348181 0 0 0-56.587895-44.677491z" p-id="73460"></path></svg>