<?xml version="1.0" standalone="no"?><!DOCTYPE svg PUBLIC "-//W3C//DTD SVG 1.1//EN" "http://www.w3.org/Graphics/SVG/1.1/DTD/svg11.dtd"><svg t="1592209729216" class="icon" viewBox="0 0 1024 1024" version="1.1" xmlns="http://www.w3.org/2000/svg" p-id="86519" xmlns:xlink="http://www.w3.org/1999/xlink" width="128" height="128"><defs><style type="text/css"></style></defs><path d="M950.8 451.9L545 78.1c-17.8-18-46.8-18-64.6 0L73 451.9c-14.3 14.5-8.3 42.7 0.4 60.1h103.1v419.3c0 15.5 12.7 28.2 28.2 28.2h614.8c15.5 0 28.2-12.7 28.2-28.2V512h103.1c8.7-17.3 14.3-45.6 0-60.1z m-215 185.8c0 15.5-12.6 28.1-28.1 28.1H470.2v100.5c0 6.3-5.1 11.4-11.4 11.4h-2.6c-7.4 0-14.6-3-19.8-8.2L296.6 629.7c-11-11-11-28.7 0-39.7l139.7-139.7c5.3-5.3 12.4-8.2 19.8-8.2h2.6c6.3 0 11.4 5.1 11.4 11.4V554h237.5c15.5 0 28.1 12.6 28.1 28.1v55.6z" p-id="86520"></path></svg>