<?xml version="1.0" standalone="no"?><!DOCTYPE svg PUBLIC "-//W3C//DTD SVG 1.1//EN" "http://www.w3.org/Graphics/SVG/1.1/DTD/svg11.dtd"><svg t="1592203727018" class="icon" viewBox="0 0 1229 1024" version="1.1" xmlns="http://www.w3.org/2000/svg" p-id="25669" xmlns:xlink="http://www.w3.org/1999/xlink" width="153.625" height="128"><defs><style type="text/css"></style></defs><path d="M1126.108262 0H103.566952C46.678063 0 0 45.219373 0 102.108262v615.566952c0 55.430199 46.678063 100.649573 103.566952 100.649572h408.433048v103.566952H307.783476c-29.173789 0-51.054131 21.880342-51.054131 51.054131 0 27.7151 21.880342 51.054131 51.054131 51.054131h614.108262c29.173789 0 51.054131-23.339031 51.054131-51.054131 0-29.173789-21.880342-51.054131-51.054131-51.054131H717.675214v-103.566952h408.433048c56.888889 0 103.566952-45.219373 103.566952-100.649572V102.108262c0-56.888889-46.678063-102.108262-103.566952-102.108262z m-100.649573 459.487179H805.196581l-40.843305 119.612536c-5.834758 18.962963-20.421652 32.091168-39.384615 35.008547h-7.293447c-17.504274 0-33.549858-8.752137-42.301995-23.339031L503.247863 335.498575l-107.94302 110.860399c-10.210826 7.293447-23.339031 13.128205-36.467236 13.128205H204.216524c-27.7151 0-51.054131-21.880342-51.054131-49.595441 0-29.173789 23.339031-51.054131 51.054131-51.054131h132.740741l138.575499-140.034188c10.210826-10.210826 26.25641-16.045584 40.843304-14.586895 16.045584 1.458689 29.173789 10.210826 37.925926 21.880342l147.327636 220.262108 18.962963-52.51282c7.293447-21.880342 26.25641-35.008547 46.678062-35.008547h258.188034c27.7151 0 49.595442 21.880342 49.595442 51.054131 0 27.7151-21.880342 49.595442-49.595442 49.595441z" p-id="25670"></path></svg>