<?xml version="1.0" standalone="no"?><!DOCTYPE svg PUBLIC "-//W3C//DTD SVG 1.1//EN" "http://www.w3.org/Graphics/SVG/1.1/DTD/svg11.dtd"><svg t="1592210773990" class="icon" viewBox="0 0 1024 1024" version="1.1" xmlns="http://www.w3.org/2000/svg" p-id="104248" xmlns:xlink="http://www.w3.org/1999/xlink" width="128" height="128"><defs><style type="text/css"></style></defs><path d="M847.4 107H176.6c-61.7 0-111.8 50-111.8 111.8v139.7c0 61.7 50 111.8 111.8 111.8h670.7c61.7 0 111.8-50 111.8-111.8V218.8c0-61.8-50-111.8-111.7-111.8zM318.1 358.5H178.4V218.8h139.7v139.7zM519 693.4c46.2 0 83.8 37.6 83.8 83.8S565.2 861 519 861s-83.8-37.6-83.8-83.8 37.6-83.8 83.8-83.8m0-55.8c-77.2 0-139.7 62.6-139.7 139.7 0 77.2 62.6 139.7 139.7 139.7s139.7-62.6 139.7-139.7c0-77.2-62.5-139.7-139.7-139.7z" p-id="104249"></path><path d="M931.2 749.3H651.7c-15.4 0-27.9 12.5-27.9 27.9s12.5 27.9 27.9 27.9h279.5c15.4 0 27.9-12.5 27.9-27.9s-12.5-27.9-27.9-27.9zM384.5 749.3H102.8c-15.4 0-27.9 12.5-27.9 27.9s12.5 27.9 27.9 27.9h281.7c15.4 0 27.9-12.5 27.9-27.9s-12.5-27.9-27.9-27.9zM512 529.4c-15.4 0-27.9 12.5-27.9 27.9v89.6c0 15.4 12.5 27.9 27.9 27.9 15.4 0 27.9-12.5 27.9-27.9v-89.6c0-15.4-12.5-27.9-27.9-27.9z" p-id="104250"></path></svg>