<?xml version="1.0" standalone="no"?><!DOCTYPE svg PUBLIC "-//W3C//DTD SVG 1.1//EN" "http://www.w3.org/Graphics/SVG/1.1/DTD/svg11.dtd"><svg t="1592207474381" class="icon" viewBox="0 0 1024 1024" version="1.1" xmlns="http://www.w3.org/2000/svg" p-id="64314" xmlns:xlink="http://www.w3.org/1999/xlink" width="128" height="128"><defs><style type="text/css"></style></defs><path d="M963.799548 877.130433a235.2527 235.2527 0 0 1-129.007789 128.408765 255.456114 255.456114 0 0 1-95.625865 18.406345 247.777728 247.777728 0 0 1-174.261259-69.813417 236.069549 236.069549 0 0 1-52.223921-77.001693 224.306914 224.306914 0 0 1-19.223196-93.393144v-1.034676a226.376267 226.376267 0 0 1 19.223196-92.576294 232.094214 232.094214 0 0 1 52.223921-76.239301 234.76259 234.76259 0 0 1 78.635393-51.407071 252.515456 252.515456 0 0 1 95.843692-17.916236 231.604104 231.604104 0 0 1 95.625866 18.406346 251.480779 251.480779 0 0 1 77.600717 51.407071 265.74842 265.74842 0 0 1 51.407071 76.239301 231.821931 231.821931 0 0 1 19.059825 93.556513 224.143544 224.143544 0 0 1-19.059825 93.393144z m-103.467623-133.473233l-88.655415 1.034676v-81.085942a40.951396 40.951396 0 0 0-10.020023-27.827345 41.986072 41.986072 0 0 0-28.262998-11.272525 34.035402 34.035402 0 0 0-26.193645 11.272525 48.194129 48.194129 0 0 0-10.020023 27.827345v81.085942H619.415735a41.169222 41.169222 0 0 0-29.079848 11.272525 38.882043 38.882043 0 0 0-12.307201 27.827345 26.792669 26.792669 0 0 0 12.307201 24.559946 46.342604 46.342604 0 0 0 29.079848 8.168497h77.54626v83.318664a44.109881 44.109881 0 0 0 10.020022 28.644194 33.381922 33.381922 0 0 0 26.193646 11.272526 38.11965 38.11965 0 0 0 28.262998-11.272526 41.931615 41.931615 0 0 0 10.020022-28.644194v-83.318664h88.873242v2.069352a46.7238 46.7238 0 0 0 29.297674-9.203173 31.47594 31.47594 0 0 0 12.089375-25.594622 41.550419 41.550419 0 0 0-41.387049-40.134546z m-381.196504-206.445136a268.634622 268.634622 0 1 1 274.1892-269.070275 272.664414 272.664414 0 0 1-274.1892 269.070275z m37.248344 49.337719a282.575523 282.575523 0 0 0-72.481792 189.01901v0.816849a288.62021 288.62021 0 0 0 137.012915 243.475653H386.559127c-192.504234 0-345.690772 0-345.690772-97.695218v-19.441022c0-186.73183 142.131839-316.175272 333.383571-316.175272h142.131839z" p-id="64315"></path></svg>