<?xml version="1.0" standalone="no"?><!DOCTYPE svg PUBLIC "-//W3C//DTD SVG 1.1//EN" "http://www.w3.org/Graphics/SVG/1.1/DTD/svg11.dtd"><svg t="1592207681462" class="icon" viewBox="0 0 1241 1024" version="1.1" xmlns="http://www.w3.org/2000/svg" p-id="69858" xmlns:xlink="http://www.w3.org/1999/xlink" width="155.125" height="128"><defs><style type="text/css"></style></defs><path d="M939.283824 796.765567l-226.692538-87.967543a237.169166 237.169166 0 0 1-59.789028-33.236197c-10.83789-10.657259-9.934733-36.126301 0-67.375551s126.442053-161.484565 126.442053-279.075674C777.799259 147.214676 658.221203 0 510.825895 0S244.033163 147.214676 244.033163 329.110602c0 112.714059 103.140589 247.103898 115.965426 270.947257a80.38102 80.38102 0 0 1 0 72.252601c-15.173046 16.979361-70.446287 33.958723-70.446287 33.958723l-203.752337 90.315753a124.997001 124.997001 0 0 0-85.799965 114.339742v24.02399c0 55.27324 44.977245 89.051332 100.069854 89.051332h823.318398c55.27324 0 100.069854-33.778091 100.069853-89.051332v-24.02399a126.442053 126.442053 0 0 0-84.174281-114.159111zM899.544893 416.53625c-23.482096 0-42.629035-11.921679-42.629035-37.21009s19.146939-37.029458 42.629035-37.029459h299.306404a36.126301 36.126301 0 0 1 41.183983 37.21009c0 25.288411-20.41136 37.21009-43.893456 37.21009zM962.946551 586.691127c-23.482096 0-42.448404-11.921679-42.448403-37.029458s18.06315-37.21009 42.448403-37.21009h236.44664a36.126301 36.126301 0 0 1 39.919563 37.21009c0 25.107779-18.06315 37.029458-41.364615 37.029458zM1041.701887 747.091903c-23.662727 0-42.629035-11.921679-42.629035-36.126301s18.06315-37.21009 42.629035-37.21009h158.41383a36.126301 36.126301 0 0 1 41.183983 37.21009c0 25.107779-19.146939 36.126301-42.629035 36.126301z" p-id="69859"></path></svg>
