<?xml version="1.0" standalone="no"?><!DOCTYPE svg PUBLIC "-//W3C//DTD SVG 1.1//EN" "http://www.w3.org/Graphics/SVG/1.1/DTD/svg11.dtd"><svg t="1592204507606" class="icon" viewBox="0 0 1024 1024" version="1.1" xmlns="http://www.w3.org/2000/svg" p-id="32553" xmlns:xlink="http://www.w3.org/1999/xlink" width="128" height="128"><defs><style type="text/css"></style></defs><path d="M913.261714 519.460571H504.539429V110.738286a9.142857 9.142857 0 0 0-9.142858-9.142857h-29.696a454.217143 454.217143 0 0 0-322.852571 133.705142A454.217143 454.217143 0 0 0 9.142857 558.299429a454.217143 454.217143 0 0 0 133.705143 322.852571 454.217143 454.217143 0 0 0 145.115429 97.792c56.32 23.917714 116.297143 36.059429 177.883428 36.059429a454.217143 454.217143 0 0 0 322.852572-133.778286 454.217143 454.217143 0 0 0 97.792-145.115429c23.917714-56.32 36.059429-116.224 36.059428-177.810285v-29.696a9.362286 9.362286 0 0 0-9.289143-9.142858z m100.425143-63.488l-2.925714-32.182857A455.460571 455.460571 0 0 0 599.332571 13.165714l-32.329142-2.925714a9.069714 9.069714 0 0 0-9.947429 8.996571V457.874286c0 5.12 4.096 9.142857 9.142857 9.142857l438.345143-1.097143a9.216 9.216 0 0 0 9.142857-9.874286z" p-id="32554"></path></svg>