<?xml version="1.0" standalone="no"?><!DOCTYPE svg PUBLIC "-//W3C//DTD SVG 1.1//EN" "http://www.w3.org/Graphics/SVG/1.1/DTD/svg11.dtd"><svg t="1592208160572" class="icon" viewBox="0 0 1024 1024" version="1.1" xmlns="http://www.w3.org/2000/svg" p-id="74239" xmlns:xlink="http://www.w3.org/1999/xlink" width="128" height="128"><defs><style type="text/css"></style></defs><path d="M597.19 1007.142H150.187c-70.739-0.22-127.95-57.653-127.893-128.388V149.287c-0.109-70.781 57.112-128.29 127.893-128.534h567.398c70.754 0.217 127.974 57.682 127.89 128.435v327.646c-140.506-42-290.58 25.24-352.764 158.055-62.184 132.817-17.714 291.14 104.53 372.155l-0.051 0.098z m112.008-581.358c0.028-20.517-16.571-37.183-37.088-37.24H195.66c-20.565 0-37.235 16.676-37.235 37.24s16.67 37.24 37.235 37.24h476.45c20.517-0.057 37.117-16.722 37.088-37.24zM467.768 639.4a37.018 37.018 0 0 0 26.294-10.906 37.026 37.026 0 0 0 10.799-26.333c0-20.501-16.59-37.139-37.093-37.19H195.711c-20.564 0-37.24 16.672-37.24 37.241 0 20.562 16.676 37.235 37.24 37.235H467.82l-0.052-0.047zM195.611 286.597h476.447c20.569 0 37.24-16.67 37.24-37.238 0-20.566-16.671-37.235-37.24-37.235H195.61c-20.565 0-37.24 16.669-37.24 37.235 0 20.57 16.675 37.238 37.24 37.238z m0.1 454.897c-20.564 0-37.24 16.672-37.24 37.24 0 20.564 16.676 37.236 37.24 37.236h188.853c20.564 0 37.24-16.672 37.24-37.237 0-20.567-16.676-37.24-37.24-37.24H195.66h0.051z m0 0" p-id="74240"></path><path d="M758.47 507.069c-137.259 0-248.977 112.157-248.977 250.057 0 137.858 111.717 250.016 248.977 250.016 137.315 0 249.08-112.158 249.08-250.063 0-137.853-111.765-250.01-249.08-250.01z m174.799 250.057c0 96.769-78.42 175.49-174.8 175.49-96.321 0-174.695-78.721-174.695-175.537 0-96.767 78.374-175.483 174.696-175.483 96.379 0 174.799 78.716 174.799 175.483v0.047z m0 0" p-id="74241"></path><path d="M837.98 770.102H772.38v-99.928c0.028-20.517-16.567-37.182-37.09-37.239-20.517 0.057-37.116 16.722-37.088 37.24v125.127a49.332 49.332 0 0 0 14.445 34.878 49.33 49.33 0 0 0 34.878 14.445h90.457c20.564 0 37.235-16.667 37.235-37.24 0-20.564-16.67-37.231-37.235-37.231v-0.052z m0 0" p-id="74242"></path></svg>