<?xml version="1.0" standalone="no"?><!DOCTYPE svg PUBLIC "-//W3C//DTD SVG 1.1//EN" "http://www.w3.org/Graphics/SVG/1.1/DTD/svg11.dtd"><svg t="1592210006135" class="icon" viewBox="0 0 1024 1024" version="1.1" xmlns="http://www.w3.org/2000/svg" p-id="88525" xmlns:xlink="http://www.w3.org/1999/xlink" width="128" height="128"><defs><style type="text/css"></style></defs><path d="M755.585325 25.997366H92.790969c-14.10047 2.817686-25.383255 8.465099-33.848354 16.918156a68.033866 68.033866 0 0 0-19.735842 47.948824v764.291251c0 50.778551 16.918156 84.602822 67.684666 84.602823h414.585137c-31.030668-45.119097-50.76651-90.226152-56.413923-138.187018 0-8.453057-2.817686-14.10047-2.817686-22.553528v-2.805644c-2.817686-81.797178 28.200941-141.040828 53.584196-177.706868 2.829727-2.805644 2.829727-5.647413 5.647413-5.647413 2.805644-5.647413 5.647413-8.453057 8.453057-11.270743 53.596237-62.049294 138.211101-101.545061 231.26698-101.545061 19.747883 0 36.678081 5.647413 62.049295 8.465099V93.682032c0.012041-39.483725-31.030668-67.684666-67.660583-67.684666zM453.79191 322.119285c14.10047 0 28.200941 14.10047 28.20094 31.018627 0 16.930198-11.282785 31.030668-28.20094 31.030667h-109.998119v36.66604h109.998119c14.10047 0 28.200941 14.10047 28.20094 31.018627s-11.282785 31.030668-28.20094 31.030667h-109.998119v73.332079c0 16.906115-14.10047 31.006585-31.018626 31.006586s-31.030668-14.10047-31.030668-31.006586v-73.332079h-109.998119c-14.10047 0-28.200941-14.10047-28.200941-31.030667 0-16.906115 11.294826-31.018627 28.200941-31.018627h109.998119v-36.66604h-109.998119c-14.10047 0-28.200941-14.10047-28.200941-31.030667 0-16.918156 11.294826-31.018627 28.200941-31.018627h109.998119v-8.465099l-126.916275-129.73396c-11.294826-11.282785-11.294826-31.030668 0-42.301411 11.282785-11.282785 31.018627-11.282785 42.301411 0l115.63349 118.451176 115.621449-118.451176c11.294826-11.282785 31.030668-11.282785 42.313452 0 11.282785 11.282785 11.282785 31.030668 0 42.301411L343.793791 313.666228v8.465098h109.998119v-0.012041z" p-id="88526"></path><path d="M758.390969 533.662465c-135.393415 0-242.561806 104.350706-242.561806 236.89031 0 129.73396 109.998119 236.926435 242.561806 236.926435 135.369332 0 242.537723-104.350706 242.537723-236.926435 0-129.73396-109.998119-236.89031-242.537723-236.89031z m95.897648 267.920978h-64.891063v64.86698c0 16.906115-14.10047 28.200941-28.200941 28.200941-16.906115 0-28.200941-14.10047-28.20094-28.200941v-64.86698h-64.866981c-16.942239 0-28.212982-14.10047-28.212982-28.200941 0-16.930198 14.10047-28.212982 28.212982-28.212982h64.866981v-64.86698c0-16.906115 14.10047-28.200941 28.20094-28.200941 16.906115 0 28.200941 14.10047 28.200941 28.200941v64.86698h64.891063c16.906115 0 28.200941 14.10047 28.200941 28.212982 0 16.930198-14.10047 28.200941-28.200941 28.200941z" p-id="88527"></path></svg>