<?xml version="1.0" standalone="no"?><!DOCTYPE svg PUBLIC "-//W3C//DTD SVG 1.1//EN" "http://www.w3.org/Graphics/SVG/1.1/DTD/svg11.dtd"><svg t="1592205838042" class="icon" viewBox="0 0 1024 1024" version="1.1" xmlns="http://www.w3.org/2000/svg" p-id="43353" xmlns:xlink="http://www.w3.org/1999/xlink" width="128" height="128"><defs><style type="text/css"></style></defs><path d="M318.627706 1024c-67.795815-142.722644-32.106624-224.780488 21.427163-299.707317a486.819672 486.819672 0 0 0 71.344262-167.698254 190.319605 190.319605 0 0 1 28.524057 149.853658 393.672931 393.672931 0 0 0 82.057844-285.411168c178.411835 124.843929 256.887112 399.575636 153.538584 599.380514 549.326936-313.901106 135.59163-781.340797 64.247368-831.326136 24.97561 53.533786 28.524057 142.722644-21.427163 185.542849C636.213739 60.664801 432.894533 0 432.894533 0c24.94149 160.601359-85.640411 335.396508-192.742103 467.439691a338.876716 338.876716 0 0 0-42.751966-171.314941C190.26945 413.871785 101.012352 506.643209 76.070862 624.390244c-32.106624 160.601359 24.97561 274.731707 242.625084 399.609756z m0 0" p-id="43354"></path></svg>