<?xml version="1.0" standalone="no"?><!DOCTYPE svg PUBLIC "-//W3C//DTD SVG 1.1//EN" "http://www.w3.org/Graphics/SVG/1.1/DTD/svg11.dtd"><svg t="1592205989231" class="icon" viewBox="0 0 1031 1024" version="1.1" xmlns="http://www.w3.org/2000/svg" p-id="46195" xmlns:xlink="http://www.w3.org/1999/xlink" width="128.875" height="128"><defs><style type="text/css"></style></defs><path d="M836.564 62H191.916C122.03 62 64.241 119.341 64.241 189.675v644.649c0 69.885 57.34 127.675 127.675 127.675h644.648c69.885 0 127.676-57.341 127.676-127.675V189.227c0-69.886-57.342-127.228-127.676-127.228z m9.856 577.899c-17.024 39.871-40.767 75.261-71.678 106.172-30.463 30.463-66.302 54.654-106.172 71.678-41.215 17.471-84.669 26.43-129.916 26.43-79.742 0-156.795-28.671-216.824-80.189-10.304-8.96-19.711-29.119-10.751-39.423 4.928-5.377 11.648-17.024 19.263-17.024 5.824 0 19.711-5.823 24.639-2.24 51.069 43.902 116.476 64.061 184.122 64.061 156.346 0 258.935-102.588 258.935-258.935S695.449 247.462 539.103 247.462c-135.74 0-232.504 77.502-258.04 209.209l25.088-23.295c4.479-4.032 18.367-14.336 24.639-14.336 7.167 0 22.399 3.136 26.879 8.512 8.96 10.304 0 42.559-10.303 51.518l-103.484 59.133c-1.344 0.896-2.241 1.792-3.584 2.69h-0.448c-0.448 0.447-0.895 0.447-1.792 0.894 0 0-0.448 0-0.448 0.448-0.448 0-0.896 0.448-1.344 0.448h-0.447c-0.448 0-0.896 0.448-1.344 0.448h-0.447c-0.448 0-1.343 0.448-1.792 0.448h-0.448c-0.447 0-1.343 0-2.24 0.447h-5.377c-0.447 0-0.895 0-1.343-0.448-0.448 0-0.896 0-1.344-0.448-0.448 0-0.895-0.448-1.343-0.448-0.896-0.447-2.24-0.895-3.136-1.343-0.448-0.448-0.895-0.448-1.343-0.896s-0.896-0.448-1.343-0.896h-0.448l-2.688-2.688c-0.448-0.447-0.448-0.895-0.896-0.895 0-0.448-0.447-0.448-0.447-0.896l-0.448-0.447c-0.448-0.448-0.448-0.896-0.895-1.343-0.448-0.448-0.448-0.896-0.896-1.344-0.448-0.447-0.448-1.342-0.895-1.792l-51.517-116.027c-2.688-6.272-2.688-12.991-0.448-19.263s7.168-11.2 13.439-13.887c3.136-1.344 6.72-2.241 10.304-2.241 9.855 0 18.815 5.825 22.847 14.783l16.575 37.183c4.031-17.023 9.855-34.046 16.575-50.174 16.576-39.871 40.766-75.261 71.677-106.172 30.463-30.463 66.301-54.654 106.172-71.677 41.214-17.472 84.669-26.431 129.916-26.431 44.797 0 65.854 2.241 129.916 21.952 41.214 12.543 83.325 44.797 114.236 75.709 30.463 30.463 50.622 66.302 67.198 106.172 17.472 41.214 21.952 84.669 21.952 129.916-3.136 44.798-11.648 88.701-29.119 129.916zM639.45 462.05c2.689 0 4.928 2.24 4.928 4.928v40.318c0 2.688-2.24 4.928-4.928 4.928h-75.709v33.599h75.709c2.689 0 4.928 2.24 4.928 4.928v40.318c0 2.688-2.24 4.928-4.928 4.928h-75.709v75.709c0 13.887-11.2 25.088-25.087 25.088s-25.088-11.2-25.088-25.088v-75.709h-75.261c-2.689 0-4.928-2.241-4.928-4.928v-40.318c0-2.689 2.24-4.928 4.927-4.928h75.709v-33.599h-75.709c-2.688 0-4.927-2.241-4.927-4.928v-40.318c0-2.689 2.24-4.928 4.927-4.928h39.871l-41.214-41.214c-9.855-9.856-9.855-25.535 0-35.391 4.928-4.928 11.2-7.167 17.919-7.167s12.992 2.688 17.92 7.167l66.301 66.302 66.302-66.302c4.928-4.928 11.199-7.167 17.919-7.167s12.992 2.688 17.919 7.167c9.856 9.856 9.856 25.535 0 35.391l-41.214 41.214h39.423z" p-id="46196"></path></svg>