<?xml version="1.0" standalone="no"?><!DOCTYPE svg PUBLIC "-//W3C//DTD SVG 1.1//EN" "http://www.w3.org/Graphics/SVG/1.1/DTD/svg11.dtd"><svg t="1592206471375" class="icon" viewBox="0 0 1024 1024" version="1.1" xmlns="http://www.w3.org/2000/svg" p-id="53919" xmlns:xlink="http://www.w3.org/1999/xlink" width="128" height="128"><defs><style type="text/css"></style></defs><path d="M735.5 65h-447C165.064 65 65 165.064 65 288.5v447C65 858.936 165.064 959 288.5 959h447C858.936 959 959 858.936 959 735.5v-447C959 165.064 858.936 65 735.5 65z m59.982 288.649a513.246 513.246 0 0 1-41.627 42.241c27.211-5.476 18.131 21.344 10.141 35.564a322.758 322.758 0 0 1-128.513 113.845c-6.398 3.827-13.326 6.565-23.468 11.482 27.742-0.531 17.07 21.903 6.398 35.034a274.738 274.738 0 0 1-166.899 96.329 620.012 620.012 0 0 1-95.462 9.303c-16.539 0.559-17.601-1.09-36.794 18.076-14.947 15.31-26.68 33.385-41.068 49.254a31.212 31.212 0 0 1-10.141 7.124h192.014v8.214H245.7c123.707-165.837 250.627-328.377 443.228-426.913-50.762 4.386-138.738 54.199-212.325 118.232a1937.865 1937.865 0 0 0-170.642 175.559 176.264 176.264 0 0 1 1.592-130.664 319.476 319.476 0 0 1 93.842-124.825c20.283-17.517 49.589-31.178 45.873-7.655a372.919 372.919 0 0 1 139.157-71.688c16.008-4.386 58.11-16.427 46.935 10.951a199.861 199.861 0 0 1 119.461-23.551 85.73 85.73 0 0 1 29.865 6.593c25.591 10.813 29.866 26.151 12.796 47.495z" p-id="53920"></path></svg>