<?xml version="1.0" standalone="no"?><!DOCTYPE svg PUBLIC "-//W3C//DTD SVG 1.1//EN" "http://www.w3.org/Graphics/SVG/1.1/DTD/svg11.dtd"><svg t="1592208276213" class="icon" viewBox="0 0 1024 1024" version="1.1" xmlns="http://www.w3.org/2000/svg" p-id="77441" xmlns:xlink="http://www.w3.org/1999/xlink" width="128" height="128"><defs><style type="text/css"></style></defs><path d="M814.13592 1023.938306l141.804073-180.054465h-141.804073z" p-id="77442"></path><path d="M873.115556 0H151.29365A83.287143 83.287143 0 0 0 68.006507 83.163755V940.836245a83.287143 83.287143 0 0 0 83.287143 83.163755h582.701531V788.991445a27.762381 27.762381 0 0 1 27.762381-27.762381h194.182431V83.163755A83.287143 83.287143 0 0 0 873.115556 0zM189.852513 667.947464h150.950235c25.263767 0 42.121701 16.857935 42.121701 42.121701s-16.857935 42.121701-42.121701 42.121701H189.852513c-25.263767 0-42.121701-16.842511-42.121702-42.121701S164.511628 667.947464 189.852513 667.947464z m308.810218 236.612603H189.852513c-25.263767 0-42.121701-16.857935-42.121702-42.121701S164.511628 820.316665 189.852513 820.316665h308.810218c25.263767 0 42.106278 16.857935 42.106278 42.121701s-16.842511 42.121701-42.106278 42.121701z m4.627063-315.658272L309.199904 373.851307h126.349681s26.112062-195.879022 173.530305-246.391131c21.053139-8.421256 46.270635-12.631883 71.596095-12.631883-46.270635 21.053139-75.822147 71.596096-88.438607 101.07049-9.331245 20.266538-19.40282 31.602844-19.402819 157.952524h126.34968z" p-id="77443"></path></svg>