<?xml version="1.0" standalone="no"?><!DOCTYPE svg PUBLIC "-//W3C//DTD SVG 1.1//EN" "http://www.w3.org/Graphics/SVG/1.1/DTD/svg11.dtd"><svg t="1594968576653" class="icon" viewBox="0 0 1024 1024" version="1.1" xmlns="http://www.w3.org/2000/svg" p-id="2026" width="64" height="64" xmlns:xlink="http://www.w3.org/1999/xlink"><defs><style type="text/css"></style></defs><path d="M681.683 682.353l0.188-89.408S561.483 741.301 561.483 801.498C561.482 861.644 681.87 1010 681.87 1010l-0.188-89.122h120.101c29.069 0.192 57.182-14.723 72.674-41.402l148.786-257.749c-21.8 37.722-62.442 60.912-105.76 60.527h-235.8v0.099zM749.859 86.146c-17.021-29.356-48.48-47.764-82.331-47.668-34.04 0-65.403 18.599-82.045 48.193-0.095 0.096-27.728 47.668-55.553 96.052l56.129 97.105-78.027 43.796s188.659 29.928 240.775-0.096c52.113-30.17 120.389-208.457 120.389-208.457l-77.169 44.751c0 0.001-30.121-52.782-42.168-73.676" p-id="2027"></path><path d="M1003.546 609.773c16.923-29.355 16.829-65.882-0.479-95.192 0-0.095-59.669-103.272-107.098-185.315l-206.544 119.24 120.388 208.552h110.922c34.138 0.288 65.695-17.88 82.811-47.285M284.657 561.195l77.359 44.848S293.743 427.66 241.628 397.492c-52.211-30.073-240.872 0-240.872 0l77.453 44.465-60.147 104.082c-14.725 24.958-15.873 56.801-0.477 83.624l148.788 257.703c-21.708-37.726-21.612-84.482 0.382-122.016l117.902-204.155z" p-id="2028"></path><path d="M186.646 876.129c16.923 29.499 48.67 47.621 82.618 47.429h214.194V684.934H242.489c-27.828 48.238-55.461 96.052-55.461 96.146-17.212 29.167-17.404 65.595-0.382 95.049M173.066 273.327l207.309 119.719S536.05 123.105 564.354 74.243C586.248 36.663 624.689 14 668.1 14H370.717c-31.076 0-57.085 17.451-72.291 42.123-26.295 42.789-125.36 217.204-125.36 217.204" p-id="2029"></path></svg>
