<?xml version="1.0" standalone="no"?><!DOCTYPE svg PUBLIC "-//W3C//DTD SVG 1.1//EN" "http://www.w3.org/Graphics/SVG/1.1/DTD/svg11.dtd"><svg t="1592203390879" class="icon" viewBox="0 0 1024 1024" version="1.1" xmlns="http://www.w3.org/2000/svg" p-id="23586" xmlns:xlink="http://www.w3.org/1999/xlink" width="128" height="128"><defs><style type="text/css"></style></defs><path d="M816.1 170.2s-51.4 0-134.9-32.1C591.3 106 536.7 70.6 536.7 70.6L511 57.8l-22.5 12.8s-57.8 35.3-144.5 67.5c-86.7 28.9-134.9 32.1-134.9 32.1l-41.8 3.2v443.2c0 163.8 305.1 340.5 343.7 340.5 35.3 0 343.7-176.7 343.7-340.5V173.4l-38.6-3.2zM488.5 680.9L327.9 533.1l48.2-61 102.8 93.1 192.7-240.9 57.8 54.6-240.9 302z" fill="" p-id="23587"></path></svg>