<?xml version="1.0" standalone="no"?><!DOCTYPE svg PUBLIC "-//W3C//DTD SVG 1.1//EN" "http://www.w3.org/Graphics/SVG/1.1/DTD/svg11.dtd"><svg t="1592210276238" class="icon" viewBox="0 0 1024 1024" version="1.1" xmlns="http://www.w3.org/2000/svg" p-id="95580" xmlns:xlink="http://www.w3.org/1999/xlink" width="128" height="128"><defs><style type="text/css"></style></defs><path d="M957.2 86.4v521.4c-0.3 32.4-7.9 64.3-22.3 93.4-15.7 32.3-35.3 62.6-58.4 90.1-24.9 30-52.5 57.6-82.4 82.6-29.8 25.2-61.2 48.4-94 69.5-29.6 19.2-60.5 36.1-92.6 50.7-25.3 11.9-51.7 21.2-78.8 27.9l-10.6 1.9-9.7-1.9c-27.7-6.6-54.7-16-80.6-27.9-32.9-14.7-64.7-31.6-95.3-50.7-33.9-20.9-66.3-44.2-97-69.5-30.7-25-59.2-52.6-85-82.6-23.8-27.4-44.1-57.7-60.5-90.1-15-28.9-23-60.9-23.3-93.4V86.4l36.5-5.6L513 0l417.6 80.7 26.6 5.7zM513 75.5l-5-1-351.5 63v329.2H513V75.5z m354.5 391H513v468.6c25.5-6.4 50.4-14.8 74.5-25.2 27.3-11.6 53.7-25.1 79.1-40.2 26.2-15.5 51.4-32.8 75.4-51.6 23.3-18.2 44.8-38.6 64.1-61 17.9-20.4 32.8-43.2 44.5-67.6 10.8-22.2 16.5-46.6 16.6-71.3V466.5h0.3z" p-id="95581"></path></svg>
