<?xml version="1.0" standalone="no"?><!DOCTYPE svg PUBLIC "-//W3C//DTD SVG 1.1//EN" "http://www.w3.org/Graphics/SVG/1.1/DTD/svg11.dtd"><svg t="1592209870943" class="icon" viewBox="0 0 1115 1024" version="1.1" xmlns="http://www.w3.org/2000/svg" p-id="87902" xmlns:xlink="http://www.w3.org/1999/xlink" width="139.375" height="128"><defs><style type="text/css"></style></defs><path d="M751.388 68.267a34.133 34.133 0 0 1 0-68.267h227.556a91.022 91.022 0 0 1 91.022 91.022v227.556a34.133 34.133 0 1 1-68.266 0V91.022a22.756 22.756 0 0 0-22.756-22.755H751.388M1001.7 705.422a34.133 34.133 0 0 1 68.266 0v227.556A91.022 91.022 0 0 1 978.944 1024H748.885a34.133 34.133 0 0 1 0-68.267H978.49a22.756 22.756 0 0 0 22.755-22.755V705.422M364.09 955.733a34.133 34.133 0 1 1 0 68.267H136.533a91.022 91.022 0 0 1-91.022-91.022V705.422a34.133 34.133 0 0 1 68.267 0v227.556a22.756 22.756 0 0 0 22.755 22.755H364.09M113.778 318.578a34.133 34.133 0 1 1-68.267 0V91.022A91.022 91.022 0 0 1 136.533 0H364.09a34.133 34.133 0 0 1 0 68.267H136.533a22.756 22.756 0 0 0-22.755 22.755v227.556M34.133 477.867a34.133 34.133 0 0 0 0 68.266h168.619v-68.266z m1046.756 0H912.27v68.266h168.619a34.133 34.133 0 0 0 0-68.266z" p-id="87903"></path><path d="M202.752 157.24h709.746v320.627H202.752z m0 388.893h709.746V866.76H202.752z" p-id="87904"></path></svg>