<?xml version="1.0" standalone="no"?><!DOCTYPE svg PUBLIC "-//W3C//DTD SVG 1.1//EN" "http://www.w3.org/Graphics/SVG/1.1/DTD/svg11.dtd"><svg t="1592210608989" class="icon" viewBox="0 0 1024 1024" version="1.1" xmlns="http://www.w3.org/2000/svg" p-id="99777" xmlns:xlink="http://www.w3.org/1999/xlink" width="128" height="128"><defs><style type="text/css"></style></defs><path d="M954.197333 833.024H661.162667a51.2 51.2 0 0 1 0-102.4h293.034666a51.2 51.2 0 0 1 0 102.4z" p-id="99778"></path><path d="M760.149333 987.306667a51.2 51.2 0 0 1-37.376-16.042667l-145.237333-153.6a51.2 51.2 0 0 1 1.024-71.338667l145.237333-145.237333a51.2 51.2 0 0 1 72.362667 72.362667l-110.08 109.568 111.104 118.101333a51.2 51.2 0 0 1-37.205333 86.357333zM419.328 624.469333a291.498667 291.498667 0 1 1 291.498667-291.498666 291.84 291.84 0 0 1-291.498667 291.498666z m0-480.597333a189.098667 189.098667 0 1 0 189.098667 189.098667A189.269333 189.269333 0 0 0 419.328 143.872z" p-id="99779"></path><path d="M66.218667 941.056h-6.826667a51.2 51.2 0 0 1-44.032-58.026667 407.552 407.552 0 0 1 692.224-233.642666 51.2 51.2 0 1 1-72.362667 72.362666A305.152 305.152 0 0 0 116.906667 896.682667a51.2 51.2 0 0 1-50.688 44.373333z" p-id="99780"></path></svg>