<?xml version="1.0" standalone="no"?><!DOCTYPE svg PUBLIC "-//W3C//DTD SVG 1.1//EN" "http://www.w3.org/Graphics/SVG/1.1/DTD/svg11.dtd"><svg t="1592206329841" class="icon" viewBox="0 0 1024 1024" version="1.1" xmlns="http://www.w3.org/2000/svg" p-id="47603" xmlns:xlink="http://www.w3.org/1999/xlink" width="128" height="128"><defs><style type="text/css"></style></defs><path d="M433.932787 141.523195h160.893561c39.0045 2.437781 70.695656-29.253375 73.133437-68.257874v-4.875563c-2.437781-39.0045-34.128937-68.257874-73.133437-68.257874h-160.893561c-39.0045-2.437781-70.695656 29.253375-73.133437 68.257874v7.313344c0 39.0045 34.128937 68.257874 73.133437 65.820093zM865.420065 97.643133h-53.631188c-29.253375 0-56.068968 17.064469-70.695655 43.880062-19.50225 41.442281-60.944531 65.820093-104.824593 65.820093H387.614944c-43.880062 0-85.322343-26.815594-104.824593-65.820093C268.163663 114.707602 241.34807 97.643133 212.094695 97.643133H158.463508c-56.068968 4.875562-99.94903 51.193406-97.511249 107.262374v711.832119C58.514478 975.244375 102.39454 1021.562219 158.463508 1024h706.956557c56.068968-2.437781 99.94903-48.755625 97.511249-107.262374V204.905507c2.437781-56.068968-41.442281-102.386812-97.511249-107.262374M229.159164 719.277346c0-19.50225 14.626687-36.566718 34.128937-36.566718h499.745152c19.50225 0 34.128937 17.064469 34.128937 36.566718v29.253375c0 19.50225-14.626687 36.566718-34.128937 36.566719H263.288101c-19.50225 0-34.128937-17.064469-34.128937-36.566719v-29.253375z m570.440807-253.529247c0 19.50225-14.626687 36.566718-34.128937 36.566718H263.288101c-19.50225 0-34.128937-17.064469-34.128937-36.566718V438.932505c0-19.50225 14.626687-36.566718 34.128937-36.566718h499.745152c19.50225 0 34.128937 17.064469 34.128937 36.566718v26.815594z" p-id="47604"></path></svg>