<?xml version="1.0" standalone="no"?><!DOCTYPE svg PUBLIC "-//W3C//DTD SVG 1.1//EN" "http://www.w3.org/Graphics/SVG/1.1/DTD/svg11.dtd"><svg t="1592206908185" class="icon" viewBox="0 0 1024 1024" version="1.1" xmlns="http://www.w3.org/2000/svg" p-id="60030" xmlns:xlink="http://www.w3.org/1999/xlink" width="128" height="128"><defs><style type="text/css"></style></defs><path d="M248.146 221.98c0 23.648-19.175 42.823-42.823 42.823H99.802c-23.648 0-42.823-19.175-42.823-42.823v-9.94c0-23.648 19.175-42.823 42.823-42.823h105.521c23.648 0 42.823 19.175 42.823 42.823v9.94z m0 294.104c0 23.648-19.175 42.823-42.823 42.823H99.802c-23.648 0-42.823-19.175-42.823-42.823v-9.942c0-23.648 19.175-42.823 42.823-42.823h105.521c23.648 0 42.823 19.18 42.823 42.823v9.942z m0 294.103c0 23.648-19.175 42.823-42.823 42.823H99.802c-23.648 0-42.823-19.175-42.823-42.823v-9.94c0-23.643 19.175-42.823 42.823-42.823h105.521c23.648 0 42.823 19.18 42.823 42.823v9.94z m0 0" p-id="60031"></path><path d="M848.591 5.635H260.384c-65.001 0-117.644 52.648-117.644 117.644v5.528h71.469c46.822 0 84.817 37.997 84.817 84.822v6.881c0 46.822-37.996 84.817-84.817 84.817H142.74v117.467h71.469c46.822 0 84.817 37.996 84.817 84.817v6.765c0 46.822-37.996 84.822-84.817 84.822H142.74v117.816h71.469c46.822 0 84.817 38.001 84.817 84.821v6.882c0 46.82-37.996 84.822-84.817 84.822H142.74v6.113c0 64.996 52.643 117.643 117.644 117.643h588.207c64.996 0 117.644-52.647 117.644-117.643v-776.32c0.001-65.049-52.648-117.697-117.644-117.697z m13.47 411.863c0 16.646-13.47 30.121-30.115 30.121H660.423V570.2h171.584c16.646 0 30.116 13.47 30.116 30.116v7.002c0 16.644-13.47 30.114-30.116 30.114H660.423V809.01c0 16.651-13.469 30.121-30.114 30.121h-7.003c-16.646 0-30.115-13.475-30.115-30.121V637.433H421.612c-16.651 0-30.121-13.47-30.121-30.114v-7.002c0-16.646 13.47-30.116 30.121-30.116H593.19V447.619H421.612c-16.651 0-30.121-13.475-30.121-30.121v-6.997c0-16.646 13.47-30.114 30.121-30.114h124.05l-89.174-89.115c-11.763-11.768-11.763-30.821 0-42.59l4.944-4.937c11.763-11.764 30.821-11.764 42.585 0l122.762 122.757 122.759-122.757c11.763-11.764 30.821-11.764 42.585 0l4.942 4.937c11.764 11.769 11.764 30.822 0 42.59l-89.174 89.169h124.055c16.646 0 30.115 13.47 30.115 30.121v6.936z m0 0" p-id="60032"></path></svg>